<svg xmlns="http://www.w3.org/2000/svg" class="icon icon-tabler icon-tabler-robot" width="24" height="24" viewBox="0 0 24 24" stroke-width="2" stroke="currentColor" fill="none" stroke-linecap="round" stroke-linejoin="round">
   <path stroke="none" d="M0 0h24v24H0z" fill="none"></path>
   <path d="M7 5h10a2 2 0 0 1 2 2v9a2 2 0 0 1 -2 2h-10a2 2 0 0 1 -2 -2v-9a2 2 0 0 1 2 -2"></path>
   <path d="M7 17v-2a2 2 0 0 1 2 -2h6a2 2 0 0 1 2 2v2"></path>
   <path d="M12 12m-2 0a2 2 0 1 0 4 0a2 2 0 1 0 -4 0"></path>
   <path d="M9 7l-1 -2"></path>
   <path d="M15 7l1 -2"></path>
   <path d="M8 13v.01"></path>
   <path d="M16 13v.01"></path>
</svg>